<!-- public/icons/metamask.svg -->
<svg width="60" height="60" viewBox="0 0 318.6 318.6" fill="none" xmlns="http://www.w3.org/2000/svg">
    <polygon fill="#E2761B" points="274.1,35.5 174.6,109.4 193,65.8"/>
    <polygon fill="#E4761B" points="44.4,35.5 143.1,110.1 125.6,65.8"/>
    <polygon fill="#E4761B" points="238.3,206.8 211.8,247.4 268.5,263 284.8,207.7"/>
    <polygon fill="#E4761B" points="33.9,207.7 50.1,263 106.8,247.4 80.3,206.8"/>
    <polygon fill="#E4761B" points="103.6,138.2 87.8,162.1 144.1,164.6 142.1,104.1"/>
    <polygon fill="#E4761B" points="214.9,138.2 175.9,103.4 174.6,164.6 230.8,162.1"/>
    <polygon fill="#E4761B" points="106.8,247.4 140.6,230.9 111.4,208.1"/>
    <polygon fill="#E4761B" points="177.9,230.9 211.8,247.4 207.1,208.1"/>
    <polygon fill="#F6851B" points="211.8,247.4 177.9,230.9 180.6,253 180.3,262"/>
    <polygon fill="#F6851B" points="106.8,247.4 119.1,262 118.8,253 121.1,230.9"/>
    <polygon fill="#E2761B" points="180.3,262 180.6,253 178.8,251.4 118.2,251.4 116.5,253 116.8,262 106.8,247.4"/>
    <polygon fill="#D7C1B3" points="180.3,262 193,276.3 238.3,264.9 237,233.9"/>
    <polygon fill="#D7C1B3" points="106.8,247.4 105.5,233.9 65.5,264.9 111.9,276.3 123.2,262"/>
    <polygon fill="#233447" points="280.3,114.2 287.4,90.8 278.3,65.8 180.6,106.6"/>
    <polygon fill="#233447" points="31.3,90.8 38.3,114.2 118.1,106.6 40.4,65.8"/>
    <polygon fill="#CC6228" points="205.3,172.1 180.6,150.5 176.1,189.1 180.9,221.8"/>
    <polygon fill="#CC6228" points="113.4,172.1 126.5,221.8 122.7,189.1 118.1,150.5"/>
    <polygon fill="#E27625" points="126.5,221.8 122.7,189.1 139.1,205.6 111.4,208.1"/>
    <polygon fill="#E27625" points="180.9,221.8 207.1,208.1 179.5,205.6 195.8,189.1"/>
    <polygon fill="#F5841F" points="207.1,208.1 195.8,189.1 198.4,207.7 198.1,217.3"/>
    <polygon fill="#F5841F" points="111.4,208.1 122.2,217.3 122,207.7 124.6,189.1"/>
    <polygon fill="#C0AD9E" points="123.3,261.3 126.6,250.7 118.2,251.4"/>
    <polygon fill="#C0AD9E" points="177.1,250.7 180.6,261.3 178.8,251.4"/>
    <polygon fill="#D87C30" points="198.1,217.3 198.4,207.7 211.3,208.8 207.1,208.1"/>
    <polygon fill="#D87C30" points="111.4,208.1 107.1,208.8 120.1,207.7 120.3,217.3"/>
    <polygon fill="#EB8F35" points="87.8,162.1 108.6,177.1 103.8,187.8"/>
    <polygon fill="#EB8F35" points="214.9,187.8 210.1,177.1 230.8,162.1"/>
    <polygon fill="#EA8E3A" points="118.2,251.4 116.5,253 78.5,241.2 89.1,238.3"/>
    <polygon fill="#EA8E3A" points="178.8,251.4 208.6,238.3 218.6,241.2 180.6,253"/>
    <polygon fill="#D87C30" points="218.6,241.2 208.6,238.3 211.3,247.4 211.3,252.3"/>
    <polygon fill="#D87C30" points="89.1,238.3 78.5,241.2 85.3,252.3 85.3,247.4"/>
    <polygon fill="#EB8F35" points="87.3,273.7 126.1,270.3 119.1,262"/>
    <polygon fill="#EB8F35" points="180.3,262 173.3,270.3 212,273.7"/>
    <polygon fill="#E8821E" points="124.1,154.9 118.2,140.6 147.9,139.7 142.1,104.1"/>
    <polygon fill="#E8821E" points="195.2,154.9 233.5,104.1 227.7,139.7 192.7,140.6"/>
    <polygon fill="#393939" points="87.8,162.1 96.1,151.5 118.1,106.6 124.1,154.9"/>
    <polygon fill="#393939" points="195.2,154.9 201.1,106.6 223.1,151.5 230.8,162.1"/>
</svg>