<!-- public/icons/nft-stamp.svg -->
<svg width="60" height="60" viewBox="0 0 60 60" fill="none" xmlns="http://www.w3.org/2000/svg">
    <!-- 邮票外框（锯齿边） -->
    <path d="M15 10 L15 12 L17 12 L17 14 L15 14 L15 16 L17 16 L17 18 L15 18 L15 20 L17 20 L17 22 L15 22 L15 24 L17 24 L17 26 L15 26 L15 28 L17 28 L17 30 L15 30 L15 32 L17 32 L17 34 L15 34 L15 36 L17 36 L17 38 L15 38 L15 40 L17 40 L17 42 L15 42 L15 44 L17 44 L17 46 L15 46 L15 48 L17 48 L17 50
  L19 50 L19 48 L21 48 L21 50 L23 50 L23 48 L25 48 L25 50 L27 50 L27 48 L29 48 L29 50 L31 50 L31 48 L33 48 L33 50 L35 50 L35 48 L37 48 L37 50 L39 50 L39 48 L41 48 L41 50 L43 50 L43 48 L45 48 L45 50
  L45 48 L43 48 L43 46 L45 46 L45 44 L43 44 L43 42 L45 42 L45 40 L43 40 L43 38 L45 38 L45 36 L43 36 L43 34 L45 34 L45 32 L43 32 L43 30 L45 30 L45 28 L43 28 L43 26 L45 26 L45 24 L43 24 L43 22 L45 22 L45 20 L43 20 L43 18 L45 18 L45 16 L43 16 L43 14 L45 14 L45 12 L43 12 L43 10
  L41 10 L41 12 L39 12 L39 10 L37 10 L37 12 L35 12 L35 10 L33 10 L33 12 L31 12 L31 10 L29 10 L29 12 L27 12 L27 10 L25 10 L25 12 L23 12 L23 10 L21 10 L21 12 L19 12 L19 10 L17 10 L17 12 L15 12 Z"
          stroke="white" stroke-width="1.5" fill="none"/>

    <!-- NFT符号 -->
    <text x="30" y="25" font-family="Arial, sans-serif" font-size="12" font-weight="bold" fill="white" text-anchor="middle">NFT</text>

    <!-- 山景图案 -->
    <path d="M20 40 L25 32 L30 38 L35 30 L40 40" stroke="white" stroke-width="2" fill="none"/>

    <!-- 太阳 -->
    <circle cx="35" cy="25" r="3" stroke="white" stroke-width="1.5" fill="white"/>
</svg>