<!-- public/icons/walletconnect.svg -->
<svg width="60" height="60" viewBox="0 0 300 185" fill="none" xmlns="http://www.w3.org/2000/svg">
    <path d="M61.439 36.256C106.928 -9.722 182.644 -9.722 228.133 36.256L232.753 40.978C235.133 43.396 235.133 47.309 232.753 49.726L218.085 64.681C216.895 65.89 214.963 65.89 213.773 64.681L207.447 58.238C174.993 25.328 122.579 25.328 90.125 58.238L83.169 65.293C81.979 66.502 80.047 66.502 78.857 65.293L64.189 50.338C61.809 47.92 61.809 44.007 64.189 41.59L61.439 36.256ZM269.181 77.912L282.042 91.009C284.422 93.427 284.422 97.34 282.042 99.757L225.623 157.257C223.243 159.674 219.379 159.674 216.999 157.257L180.168 119.709C179.573 119.104 178.607 119.104 178.012 119.709L141.181 157.257C138.801 159.674 134.937 159.674 132.557 157.257L76.138 99.757C73.758 97.34 73.758 93.427 76.138 91.009L88.999 77.912C91.379 75.495 95.243 75.495 97.623 77.912L134.454 115.46C135.049 116.065 136.015 116.065 136.61 115.46L173.441 77.912C175.821 75.495 179.685 75.495 182.065 77.912L218.896 115.46C219.491 116.065 220.457 116.065 221.052 115.46L257.883 77.912C260.263 75.495 264.127 75.495 266.507 77.912L269.181 77.912Z"
          fill="#3B99FC"/>
</svg>